PathFileType	4	(X/Y/Z)	C:\Users\Basilio\Documents\Thesis Gigler\squatting_fais\c3dfiles\076\SLS_back_pre2\markers_experimental.trc
DataRate	CameraRate	NumFrames	NumMarkers	Units	OrigDataRate	OrigDataStartFrame	OrigNumFrames
200.000000	200.000000	4	61	mm	200.000000	1216	1947
Frame#	Time	FHD			LBHD			RBHD			C7			T10			CLAV			LSHO			LUUPA			LMUPA			LDUPA			LLEP			LMEP			LRAD			LUL			LRFIN			RSHO			RUPA1			RMUPA			RDUPA			RLEP			RMEP			RRAD			RUL			RUFIN			RASI			USACR			LSACR			RSACR			LTHI1			LTHI2			LTHI3			LTHI4			LLFC			LMFC			LTIB1			LTIB2			LTIB3			LTIB4			LLMAL			LMMAL			LHEE			LMT1			LMT2			LMT5			RTHI			RTHI2			RTHI3			RTHI4			RLFC			RMFC			RTIB1			RTIB2			RTIB3			RTIB4			RLMAL			RMMAL			RHEE			RMT1			RMT2			RMT5			LASI			
		X1	Y1	Z1	X2	Y2	Z2	X3	Y3	Z3	X4	Y4	Z4	X5	Y5	Z5	X6	Y6	Z6	X7	Y7	Z7	X8	Y8	Z8	X9	Y9	Z9	X10	Y10	Z10	X11	Y11	Z11	X12	Y12	Z12	X13	Y13	Z13	X14	Y14	Z14	X15	Y15	Z15	X16	Y16	Z16	X17	Y17	Z17	X18	Y18	Z18	X19	Y19	Z19	X20	Y20	Z20	X21	Y21	Z21	X22	Y22	Z22	X23	Y23	Z23	X24	Y24	Z24	X25	Y25	Z25	X26	Y26	Z26	X27	Y27	Z27	X28	Y28	Z28	X29	Y29	Z29	X30	Y30	Z30	X31	Y31	Z31	X32	Y32	Z32	X33	Y33	Z33	X34	Y34	Z34	X35	Y35	Z35	X36	Y36	Z36	X37	Y37	Z37	X38	Y38	Z38	X39	Y39	Z39	X40	Y40	Z40	X41	Y41	Z41	X42	Y42	Z42	X43	Y43	Z43	X44	Y44	Z44	X45	Y45	Z45	X46	Y46	Z46	X47	Y47	Z47	X48	Y48	Z48	X49	Y49	Z49	X50	Y50	Z50	X51	Y51	Z51	X52	Y52	Z52	X53	Y53	Z53	X54	Y54	Z54	X55	Y55	Z55	X56	Y56	Z56	X57	Y57	Z57	X58	Y58	Z58	X59	Y59	Z59	X60	Y60	Z60	X61	Y61	Z61	

1217	6.08	-23.89980125427246	1261.74267578125	-1040.189575195313	-171.6904602050782	1211.147216796875	-1136.8779296875	-157.6971435546875	1216.87548828125	-984.891296386719	-234.2755584716797	1134.457641601563	-1045.993530273438	-429.8791809082032	899.1151123046877	-995.7330322265627	-151.9816131591797	1009.088317871094	-1054.302490234375	-191.2936553955078	1078.6181640625	-1200.4150390625	-71.35094451904298	1012.980773925781	-1293.28759765625	-33.93126678466798	1023.412231445313	-1263.351684570313	-9.941601753234865	996.6733398437502	-1313.6884765625	36.29575729370118	969.7412109375002	-1330.823974609375	38.65747833251954	907.5222167968752	-1279.23388671875	286.8261718750001	966.0816040039065	-1290.083618164063	282.6865234375001	966.5732421875002	-1355.929809570313	368.4020996093751	980.7334594726565	-1295.41259765625	-161.7663116455078	1077.6103515625	-909.230163574219	-37.22234725952149	1009.370239257813	-818.3287353515627	-3.380682468414308	1035.88134765625	-842.0171508789065	30.72826766967774	991.5363769531252	-816.3120117187502	96.78450012207034	985.7844238281252	-822.402038574219	90.82154846191408	934.6398925781252	-877.7368164062502	337.4228820800782	967.555358886719	-881.770202636719	331.6763916015626	964.3797607421877	-815.313659667969	412.0682067871095	978.7014160156252	-872.5419921875002	-382.0153808593751	648.6183471679689	-903.2200927734377	-499.7845764160157	808.072937011719	-981.5903320312502	-526.8071289062501	792.5583496093752	-1010.468688964844	-519.2818603515626	780.8557128906252	-954.535583496094	-428.7682189941407	621.1926269531251	-1194.991455078125	-348.6691284179688	593.2753295898439	-1195.549682617188	-319.3848571777344	624.8280639648439	-1172.278930664063	-329.6627197265626	535.3822021484376	-1194.389282226563	-215.3680725097657	425.027557373047	-1169.327880859375	-198.161849975586	440.6514587402345	-1058.552490234375	-214.3999786376954	301.9666137695313	-1066.148071289063	-256.7239379882813	243.7424774169922	-1118.25146484375	-228.7754821777344	247.0717010498047	-1079.825317382813	-277.6214599609376	197.3759765625001	-1032.679809570313	-381.5550231933594	104.5586395263672	-1062.67041015625	-348.4391784667969	123.4700088500977	-984.545104980469	-441.6531982421876	96.87196350097659	-1008.575134277344	-240.0341186523438	54.46540832519533	-994.666198730469	-235.3205718994141	49.42647552490236	-1033.406127929688	-259.4658203125001	42.15804290771485	-1082.454223632813	-503.3440551757814	430.251678466797	-847.4769287109377	-476.7913208007814	367.2734985351563	-856.335876464844	-445.2280883789064	363.0785522460938	-870.147644042969	-522.4977416992189	299.3783264160157	-871.8147583007815	-536.4913330078126	258.3584899902344	-881.5897216796877	-541.2128295898439	256.3537902832032	-996.9067993164065	-654.8545532226564	203.0721893310547	-901.3209228515627	-731.4987792968751	271.6906127929688	-866.5303344726565	-735.9104614257814	227.5722961425782	-881.8481445312502	-783.0184326171877	220.7566833496094	-915.7188110351565	-916.789001464844	279.4079589843751	-871.4804687500002	-905.327087402344	267.6250610351563	-956.572448730469	-931.660339355469	345.4682617187501	-907.4930419921877	-983.139587402344	154.2747192382813	-964.2360839843752	-983.2377929687502	138.8630676269532	-919.7591552734377	-999.7242431640627	161.9882354736328	-863.7254638671877	-393.8831481933595	688.6548461914064	-1112.869018554688	
1218	6.085	-23.6233196258545	1261.764404296875	-1040.094848632813	-172.4174499511719	1210.579345703125	-1136.404541015625	-157.4057922363282	1216.771728515625	-984.716247558594	-234.0865631103516	1134.434814453125	-1045.867309570313	-429.6844482421876	899.0861816406252	-995.5672607421877	-151.7792358398438	1009.013366699219	-1054.16064453125	-191.2705383300782	1078.566772460938	-1200.323486328125	-71.21964263916017	1012.888305664063	-1293.23095703125	-33.80168914794923	1023.25341796875	-1263.314575195313	-9.796524047851564	996.4486083984377	-1313.660888671875	36.32180404663087	969.6152954101565	-1330.831787109375	38.63671875000001	907.3440551757815	-1279.277954101563	286.8492126464844	965.8694458007815	-1290.13134765625	282.7817993164063	966.291687011719	-1355.974243164063	368.0625000000001	980.6663208007815	-1295.555419921875	-161.528564453125	1077.48486328125	-909.1623535156252	-36.95890808105469	1009.144348144531	-818.244079589844	-2.979631900787354	1035.636352539063	-841.9029541015627	31.00075721740723	991.2602539062502	-816.3264160156252	97.10015106201175	985.5169067382815	-822.2727050781252	91.07848358154298	934.3897705078127	-877.6892089843752	337.8296813964844	967.115173339844	-881.6740722656252	331.9757080078126	963.8997192382815	-815.2648925781252	412.3728027343751	978.0015869140627	-872.347106933594	-381.7675476074219	648.5546264648439	-903.053161621094	-499.5021972656251	808.0767822265627	-981.3935546875002	-526.5331420898439	792.5083618164065	-1010.319580078125	-518.9961547851564	780.8135986328127	-954.460144042969	-428.6125488281251	621.2196655273439	-1194.901733398438	-348.5719909667969	593.2570800781251	-1195.473022460938	-319.2630310058594	624.8774414062501	-1172.240478515625	-328.7310791015626	535.0923461914064	-1193.949462890625	-215.2142486572266	424.9846191406251	-1169.1875	-198.041488647461	440.549285888672	-1058.4541015625	-213.9351196289063	302.3033142089844	-1065.846801757813	-256.6798400878907	243.6828155517579	-1118.197875976563	-228.704818725586	247.0051269531251	-1079.72705078125	-277.5845031738282	197.3221282958985	-1032.577880859375	-381.5698852539063	104.6464538574219	-1062.62060546875	-348.4353942871094	123.4757308959961	-984.477478027344	-441.6699523925782	96.87382507324222	-1008.545166015625	-240.4862670898438	53.88561248779298	-994.7965087890627	-235.2707214355469	49.41713333129884	-1033.40869140625	-259.4802246093751	42.16319656372071	-1082.434936523438	-502.9738159179689	430.1806640625001	-847.4855957031252	-476.4491577148439	367.1340942382813	-856.3413085937502	-444.8558349609376	363.0105285644532	-870.1007080078127	-522.1227416992189	299.3072509765626	-871.8432617187502	-536.1160278320314	258.2262573242188	-881.6810302734377	-540.7636108398439	256.2364196777344	-996.9003906250002	-654.4389648437501	202.9068756103516	-901.3897094726565	-731.1250000000001	271.4771423339844	-866.587341308594	-735.5736694335939	227.1860504150391	-881.9121704101565	-782.6429443359377	220.5679321289063	-915.7473754882815	-916.3273925781252	279.2592163085938	-871.5444946289065	-904.8121337890627	267.3407592773438	-956.5557250976565	-931.333190917969	345.1817016601563	-907.5379638671877	-982.6228637695315	153.8798522949219	-964.2176513671877	-982.6177978515627	138.6004486083985	-919.7553710937502	-999.2447509765627	161.57373046875	-863.725280761719	-393.490692138672	688.7042236328126	-1112.698364257813	
1219	6.09	-23.30551528930664	1261.619750976563	-1040.004150390625	-172.1803436279297	1210.465087890625	-1136.252563476563	-157.0424499511719	1216.7412109375	-984.5544433593752	-233.8481597900391	1134.38427734375	-1045.678588867188	-429.4938964843751	899.1243896484377	-995.4575195312502	-151.4262390136719	1008.898132324219	-1054.0419921875	-191.3016357421875	1078.532470703125	-1200.233642578125	-71.23538970947267	1012.847839355469	-1293.186401367188	-33.72940826416016	1023.172912597656	-1263.316040039063	-9.654970169067385	996.3504028320315	-1313.619018554688	36.38556671142579	969.5742187500002	-1330.951782226563	38.6557960510254	907.2124633789065	-1279.498291015625	286.8768310546876	965.718200683594	-1290.173217773438	282.8040771484376	966.1802978515627	-1356.021362304688	368.1271362304688	980.394958496094	-1295.580688476563	-161.2656707763672	1077.396728515625	-908.987487792969	-36.6577262878418	1009.01513671875	-818.1673583984377	-2.749691724777222	1035.405883789063	-841.891784667969	31.28454208374024	990.9290771484377	-816.2535400390627	97.36672973632815	985.2135009765627	-822.3692016601565	91.34703063964845	934.0931396484377	-877.687927246094	337.9952697753907	966.3631591796877	-881.6402587890627	332.2171325683594	963.4210205078127	-815.3189086914065	412.711151123047	977.4290771484377	-872.2617797851565	-381.4568786621094	648.5701904296876	-902.901062011719	-499.2482299804689	808.049255371094	-981.3065185546877	-526.3269042968751	792.528747558594	-1010.18359375	-518.7078857421876	780.8463134765627	-954.2941894531252	-428.301483154297	621.1813354492189	-1194.825561523438	-348.9809570312501	593.3982543945314	-1195.566528320313	-319.0918579101563	624.8504028320314	-1172.18115234375	-328.5423889160157	535.0280151367189	-1193.805908203125	-215.0386352539063	424.9251098632814	-1169.121704101563	-197.902328491211	440.5189514160157	-1058.36572265625	-214.1549072265626	301.8668212890626	-1065.947631835938	-256.6583862304688	243.6442565917969	-1118.103149414063	-228.5587768554688	246.9290161132813	-1079.660522460938	-277.4547119140626	197.2912750244141	-1032.511596679688	-381.5194396972657	104.6276397705078	-1062.545166015625	-348.4484863281251	123.4834365844727	-984.3941040039065	-441.4397888183595	96.77045440673831	-1008.448669433594	-240.5061035156251	53.80139541625978	-994.7822265625002	-235.3429260253907	49.41459274291994	-1033.370361328125	-259.6336059570313	42.23384857177735	-1082.486694335938	-502.6633300781251	430.1209411621095	-847.4053344726565	-476.0933837890626	367.1144714355469	-856.2586669921877	-444.5621643066407	362.9468994140626	-870.1241455078127	-521.8003540039064	299.1534729003907	-871.8061523437502	-535.7498779296876	258.1116333007813	-881.7371826171877	-540.1366577148439	256.1065368652344	-996.8496093750002	-654.0764770507814	202.8495330810547	-901.4886474609377	-730.7219848632814	271.3614501953126	-866.6536865234377	-735.1166381835939	227.0572509765626	-881.8988037109377	-782.261169433594	220.5122222900391	-915.8947753906252	-915.9321899414065	279.0253295898438	-871.5878906250002	-904.349548339844	267.1456604003907	-956.6094360351565	-930.9587402343752	344.9422302246094	-907.564147949219	-982.0494384765627	153.4619140625	-964.1533813476565	-982.0970458984377	138.4563293457032	-919.8632812500002	-998.700378417969	161.3578338623047	-863.7412719726565	-393.4354858398439	688.5036010742189	-1112.595947265625	
1220	6.095	-23.03907203674317	1261.576782226563	-1039.916137695313	-172.0970306396485	1210.345581054688	-1136.17578125	-156.6914672851563	1216.660278320313	-984.3424072265627	-233.6150970458985	1134.291137695313	-1045.475830078125	-429.2490844726564	899.097595214844	-995.3172607421877	-151.1229858398438	1008.828369140625	-1053.845947265625	-191.1306915283203	1078.48681640625	-1200.08251953125	-71.1689910888672	1012.824401855469	-1293.157470703125	-33.60150527954102	1023.098571777344	-1263.307983398438	-9.743832588195803	996.241149902344	-1313.654907226563	36.48196411132813	969.4637451171877	-1331.057250976563	38.64374160766602	907.0945434570315	-1279.483642578125	286.9172058105469	965.5396118164065	-1290.273559570313	282.8136596679688	966.0764160156252	-1356.077758789063	368.5232543945313	980.1048583984377	-1295.484008789063	-160.9720306396485	1077.284301757813	-908.866882324219	-36.35792541503907	1008.86474609375	-818.0352172851565	-2.440657854080201	1035.310302734375	-841.8198852539065	31.52715301513673	990.6646118164065	-816.1817626953127	97.61645507812503	984.997985839844	-822.4793701171877	91.56826782226564	933.9348754882815	-877.6398925781252	338.2433166503907	965.8320312500002	-881.3269042968752	332.5071716308594	963.0449829101565	-815.2646484375002	413.0405883789064	977.4434204101565	-872.3570556640627	-381.1756591796876	648.5968627929689	-902.7625732421877	-499.002655029297	808.0681762695315	-981.1434326171877	-526.1255493164064	792.567810058594	-1010.019836425781	-518.4487915039064	780.8518066406252	-954.158630371094	-428.0387268066407	621.1405029296876	-1194.693969726563	-348.7707214355469	593.3690185546876	-1195.47509765625	-318.9027404785157	624.8356323242189	-1172.052368164063	-328.3228759765626	534.9804687500001	-1193.723510742188	-214.8869781494141	424.916961669922	-1168.983032226563	-197.8157653808594	440.4190368652345	-1058.283447265625	-214.0816192626954	301.8237609863282	-1065.812866210938	-256.5154724121094	243.6244049072266	-1118.023681640625	-228.5096130371094	246.8907470703126	-1079.542602539063	-277.3445739746094	197.2644958496094	-1032.379638671875	-381.4981079101563	104.666244506836	-1062.405517578125	-348.4220275878907	123.4833068847657	-984.306823730469	-441.632293701172	96.86415100097659	-1008.529724121094	-240.1786193847657	54.17834091186525	-994.5396728515627	-235.3053436279297	49.36774063110353	-1033.331298828125	-259.6203613281251	42.22372817993165	-1082.455078125	-502.3613281250001	430.0577392578126	-847.4066162109377	-475.6991271972657	367.0889587402344	-856.2050781250002	-444.2419433593751	362.9402770996094	-870.1738891601565	-521.4538574218751	299.1087951660157	-871.762145996094	-535.3494262695314	258.0803222656251	-881.7410888671877	-539.8821411132814	256.1520385742188	-996.9741821289065	-653.6765136718751	202.7274627685547	-901.5515747070315	-730.2735595703126	271.2544250488282	-866.687927246094	-734.6933593750001	226.9793090820313	-881.8602294921877	-781.871520996094	220.2744293212891	-916.0332031250002	-915.541198730469	278.8020629882813	-871.6572265625002	-903.8658447265627	266.8680725097657	-956.5561523437502	-930.6358032226565	344.7390747070313	-907.642028808594	-981.542419433594	153.0757446289063	-964.1710205078127	-981.5794067382815	138.1222229003907	-919.9909667968752	-998.183532714844	161.1012573242188	-863.792907714844	-393.2046813964845	688.5408935546876	-1112.468505859375	
